<?xml version="1.0" encoding="utf-8"?>
<!-- Generator: Adobe Illustrator 27.1.1, SVG Export Plug-In . SVG Version: 6.00 Build 0)  -->
<svg version="1.1" id="Ebene_1" xmlns="http://www.w3.org/2000/svg" xmlns:xlink="http://www.w3.org/1999/xlink" x="0px" y="0px"
	 viewBox="0 0 252 252" style="enable-background:new 0 0 252 252;" xml:space="preserve">
<style type="text/css">
	.st0{fill:#BC8F8F;}
</style>
<g>
	<path class="st0" d="M112.4,116.1c-2.2,3-4.7,6.7-4.7,10.4c0,13.3,21.5,16.5,29.9,16.5c1.3,0,2.7,0,4.2,0c1.5-2.7,3-5.5,3-8.6
		C144.8,118.6,117.9,116.8,112.4,116.1z"/>
	<path class="st0" d="M241.6,137.7c-4.8-10.2-7.1-20.7-7.5-32.1c-0.4-9.7-2.9-19.6-8.3-28.2c-3.6-5.7-5.3-12-7.5-18.3
		c-5-14.1-12.2-26.8-26.6-33.5c-8.3-3.9-14.9-10.3-23.1-14.5c-11.2-5.7-23.2-8.2-35.3-10.8c-1.4-0.3-2.9-0.5-4.4-0.7
		c-2.3,0-4.6,0-6.9,0c-8.8,1.3-17.1,3.7-23.3,10.7c-1.3,1.5-3.6,1.5-5.5,1.9C81.7,15,70.6,18.6,60.5,24.7c-9,5.4-14,14.2-19.1,23
		C37.1,55.3,33.1,63,27.7,70c-4.7,6-6.5,13.4-7.8,20.7c-0.9,5.1-2.1,10.1-4.2,14.7c-4.6,10-4.2,20.7-4.7,31.2
		c-0.3,5.6-2.3,10.6-2.7,16C7,171.2,10.7,187.8,26,200.2c11.5,9.4,24.1,17.3,36.1,26c4.9,3.6,10.9,5.4,16.7,7.4
		c2.3,0.8,5,1.1,6.7,3.1c9.7,10.9,22.6,14.4,36.3,15.6c13.6,1.2,27.4,2.5,40.7-2.4c14-5.1,27.5-11.8,38.8-21.4
		c8-6.9,15.2-15.1,20.9-24.3c2.8-4.5,6-8.8,9.4-12.8c8.1-9.4,13.1-20.2,14.5-32.6C246.8,151.5,244.7,144.3,241.6,137.7z
		 M148.7,163.1c0,9.2-9.2,19.5-17.6,26.2c-6.7,5-7.4,5.4-10.9,5.4c-4.4,0-6.9-1.2-16-5.4l8.2-13.9c7.6,4,11.1,5.7,17,5.7
		c0.8,0,1.7,0,2.5,0c2-2.9,4-6.4,4-9.9c0-21.5-39.5-13.1-39.5-36.8c0-10.4,8.6-18.5,14.1-22.7c-3.5-2.4-7.9-6.7-7.9-14.4
		c0-6.4,5.4-13.8,7.4-16.1c11.6-12.4,14.3-15.5,21.3-15.5c4.5,0,10.4,2.7,15.3,4.9l-8.1,14.1c-4.7-2.5-9.9-5.4-17-5.4
		c-1.2,0-2.4,0.2-3.5,0.5c-1.8,3-3,5.5-3,9.2c0,21.8,40.3,12.4,40.3,36.6c0,10.9-9.4,19.8-14.4,23
		C144.3,151.2,148.7,155.2,148.7,163.1z"/>
</g>
</svg>
