<?xml version="1.0" encoding="utf-8"?>
<!-- Generator: Adobe Illustrator 27.1.1, SVG Export Plug-In . SVG Version: 6.00 Build 0)  -->
<svg version="1.1" id="Ebene_1" xmlns="http://www.w3.org/2000/svg" xmlns:xlink="http://www.w3.org/1999/xlink" x="0px" y="0px"
	 viewBox="0 0 252 252" style="enable-background:new 0 0 252 252;" xml:space="preserve">
<style type="text/css">
	.st0{fill:#FFB8C6;}
</style>
<g>
	<g>
		<path class="st0" d="M129.1,104.9c-4.7-2-5.5-2-10.1-2c-3.9,6.8-3.9,6.8-3.9,14.3v32.4c6.9,3.5,13.4,4.6,20,4.6
			c6.6-15.1,7.1-16.7,7.1-25.8C142.2,114,134.8,107.2,129.1,104.9z M241.6,137.7c-4.8-10.2-7.1-20.7-7.5-32.1
			c-0.4-9.7-2.9-19.6-8.3-28.2c-3.6-5.7-5.3-12-7.5-18.3c-5-14.1-12.2-26.8-26.6-33.5c-8.3-3.9-14.9-10.3-23.1-14.5
			c-11.2-5.7-23.2-8.2-35.3-10.8c-1.4-0.3-2.9-0.5-4.4-0.7c-2.3,0-4.6,0-6.9,0c-8.8,1.3-17.1,3.7-23.3,10.7
			c-1.3,1.5-3.6,1.5-5.5,1.9C81.7,15,70.6,18.6,60.5,24.7c-9,5.4-14,14.2-19.1,23C37.1,55.3,33.1,63,27.7,70
			c-4.7,6-6.5,13.4-7.8,20.7c-0.9,5.1-2.1,10.1-4.2,14.7c-4.6,10-4.2,20.7-4.7,31.2c-0.3,5.6-2.3,10.6-2.7,16
			C7,171.2,10.7,187.8,26,200.2c11.5,9.4,24.1,17.3,36.1,26c4.9,3.6,10.9,5.4,16.7,7.4c2.3,0.8,5,1.1,6.7,3.1
			c9.7,10.9,22.6,14.4,36.3,15.6c13.6,1.2,27.4,2.5,40.7-2.4c14-5.1,27.5-11.8,38.8-21.4c8-6.9,15.2-15.1,20.9-24.3
			c2.8-4.5,6-8.8,9.4-12.8c8.1-9.4,13.1-20.2,14.5-32.6C246.8,151.5,244.7,144.3,241.6,137.7z M145.8,155.5
			c-16.1,7.7-20,10.7-25.2,10.7c-1.9,0-3.6-0.9-5.5-1.3c0,5.7-0.3,11.3-0.3,17c0,6.5,0.3,12.9,0.3,19.5h-20
			c0.5-8.5,0.9-21.4,0.9-89.7c0-7.1-0.2-14.3-0.2-21.6H115v8l13.7-7.2c2.4-1.1,4.6-2.5,6.9-2.5c3.1,0,25.5,7.7,25.5,32
			C161.3,127.8,158.3,149.6,145.8,155.5z"/>
	</g>
</g>
</svg>
